**Cinema.Verite.2011.HDRip.XviD.AC3.CrEwSaDe**


Encoder ..........: DarthMidal                                                    
Video Codec.......: XviD
Video Bitrate.....: 947 Kbps                              
Audio Codec.......: AC-3                              
Audio Bitrate.....: 128 kbps                          
Resolution........: 720x400
Runtime...........: 1h 30mn
Release Date......: 29/11/11
Theatre Date......: (TV 2011)
Language..........: English
Subtitles.........: no
IMDB Rating.......: 6.7
IMDb URL..........: http://www.imdb.com/title/tt1623742/


General

Format                           : AVI
Format/Info                      : Audio Video Interleave
File size                        : 698 MiB
Duration                         : 1h 30mn
Overall bit rate                 : 1 083 Kbps

Video
ID                               : 0
Format                           : MPEG-4 Visual
Format profile                   : Advanced Simple@L5
Format settings, BVOP            : 2
Format settings, QPel            : No
Format settings, GMC             : No warppoints
Format settings, Matrix          : Default (H.263)
Codec ID                         : XVID
Codec ID/Hint                    : XviD
Duration                         : 1h 30mn
Bit rate                         : 947 Kbps
Width                            : 720 pixels
Height                           : 400 pixels
Display aspect ratio             : 16:9
Frame rate                       : 23.976 fps
Color space                      : YUV
Chroma subsampling               : 4:2:0
Bit depth                        : 8 bits
Scan type                        : Progressive
Compression mode                 : Lossy
Bits/(Pixel*Frame)               : 0.137
Stream size                      : 611 MiB (87%)
Writing library                  : XviD 1.2.1 (UTC 2008-12-04)

Audio
ID                               : 1
Format                           : AC-3
Format/Info                      : Audio Coding 3
Mode extension                   : CM (complete main)
Codec ID                         : 2000
Duration                         : 1h 30mn
Bit rate mode                    : Constant
Bit rate                         : 128 Kbps
Channel(s)                       : 6 channels
Channel positions                : Front: L C R, Side: L R, LFE
Sampling rate                    : 48.0 KHz
Bit depth                        : 16 bits
Compression mode                 : Lossy
Stream size                      : 82.5 MiB (12%)
Alignment                        : Aligned on interleaves
Interleave, duration             : 64 ms (1.53 video frames)
Interleave, preload duration     : 192 ms


SOURCES: Cinema.Verite.2011.720p.HDTV.DD5.1.x264-TsH Thank you :-D

VIDEO: Cinema.Verite.2011.720p.HDTV.DD5.1.x264-TsH Thank you :-D
AUDIO: Cinema.Verite.2011.720p.HDTV.DD5.1.x264-TsH Thank you :-D

Plot: From HBO, a fictionalized account of the production of 'An American 
Family,' a 1973 PBS documentary television series said to be the beginning 
for reality television.


Poster:

 
http://i.imgur.com/OxOST.jpg


Screenshots:

 
http://i.imgur.com/BUCJI.jpg


ENJOY!